<svg xmlns="http://www.w3.org/2000/svg" viewBox="0 0 790.03 579.61"><defs><style>.cls-1{fill:#311b92;}.cls-2{fill:#ede7f6;}.cls-3{fill:#75ccb9;}.cls-4{fill:#fdd28a;}.cls-5{fill:#fdd797;}.cls-6{fill:#876eaf;}.cls-7{fill:#010101;}.cls-8{fill:#dc8e6c;}.cls-9{fill:#d27c5d;}.cls-10{fill:#a381d3;}.cls-11{fill:#dd8e6c;}.cls-12{fill:#fbc48b;}.cls-13{fill:#fcd18a;}.cls-14{fill:#c4c4c4;}</style></defs><g id="Capa_2" data-name="Capa 2"><g id="Capa_1-2" data-name="Capa 1"><path class="cls-1" d="M790,303.5c0,161.25-85.7,276.11-303.86,276.11S0,464.75,0,303.5s186.56-227.61,395-292C591.86-49.24,790,142.25,790,303.5Z"/><path class="cls-2" d="M380.44,247.86c-2.26.25-2.89-.31-2.24-2.47a12.68,12.68,0,0,1,5.57-7c.59-.39,1.1-.66,1.58.1.67,1,2.22,2.25,1.6,3.23a43.7,43.7,0,0,1-5.24,6.09C381.46,248.08,380.7,247.86,380.44,247.86Z"/><path class="cls-2" d="M494.55,267.08a2.12,2.12,0,0,1-1.35,1.61c-1.66.88-3.35,1.72-5,2.55-1.25.62-2.54,1.36-3.35-.61-.68-1.68-1.11-3.19,1.19-4.07,1.56-.61,3-1.52,4.53-2.22A2.88,2.88,0,0,1,494.55,267.08Z"/><path class="cls-2" d="M515.88,235.57c-.25,1.27-.49,2.71-.83,4.12-.76,3.14-1.46,3.44-4.33,2-.87-.44-.88-6.57.12-8.62.88-1.79,2.63-1,3.89-.81C516.51,232.56,515.5,234.29,515.88,235.57Z"/><path class="cls-2" d="M400.13,238.47a21.29,21.29,0,0,1-3.76-.21c-1.24-.28-.81-1.51-.91-2.39a2,2,0,0,1,1.94-2.39,22.73,22.73,0,0,1,5.34-.08c1.06.13,3.13-1.21,3.08,1.19,0,1.87,0,4.26-3.17,3.84a19.26,19.26,0,0,0-2.52,0Z"/><path class="cls-2" d="M424,244a22.59,22.59,0,0,1-2.47,3.29c-.83.77-1.47-.43-2.12-.79-1.29-.69-2.4-1.71-3.68-2.4-2.34-1.26-2-2.86-.81-4.68,1.36-2.08,2.54-.44,3.65.23a46.68,46.68,0,0,1,4.1,2.9A10.7,10.7,0,0,1,424,244Z"/><path class="cls-2" d="M432.36,250.54l1.42,1.15c1.4,1.08,2.77,2.2,4.22,3.21s2.14,1.64.73,3.43c-1.26,1.59-2.14,2.21-3.8.76-1.48-1.31-3.05-2.52-4.54-3.82a1.59,1.59,0,0,1-.19-2.48C430.86,252.05,431.05,250.84,432.36,250.54Z"/><path class="cls-2" d="M448.47,262.57a59.12,59.12,0,0,1,7.35,4.55c1,.79-.55,2.23-1.06,3.31s-1.31.82-2.14.36c-2-1.12-4-2.21-6-3.34-.67-.38-1.35-1-.7-1.73C446.75,264.74,446.79,263.1,448.47,262.57Z"/><path class="cls-2" d="M469.94,275.15a8.42,8.42,0,0,1-2.19,0c-1-.3-3,1.07-2.84-1.43.15-1.87-.08-4.19,3.11-3.66a13.09,13.09,0,0,0,3.75,0c2.59-.36,3.35,1.19,3.44,3.26.12,2.74-2.07,1.61-3.4,1.84A11.66,11.66,0,0,1,469.94,275.15Z"/><path class="cls-2" d="M503.29,260.48a6.1,6.1,0,0,1-2.92-2.46c-.73-.93.24-1.48.74-2.1a27.34,27.34,0,0,0,2.9-3.69c1-1.79,2.08-2.08,3.79-1,1.87,1.13,1.6,2.33.54,3.88a26.93,26.93,0,0,1-3.88,4.5C504.09,259.91,503.66,260.19,503.29,260.48Z"/><path class="cls-2" d="M177,199.15c-24.15,0-48.3-.05-72.46.06-2.76,0-3.59-.69-3.56-3.52.15-14,.12-28.06,0-42.09,0-2.38.51-3.28,3.13-3.28q73.26.12,146.51,0c2.34,0,3.09.63,3.07,3q-.15,21.36,0,42.73c0,2.66-1,3.11-3.3,3.11C225.91,199.12,201.44,199.15,177,199.15Z"/><path class="cls-2" d="M253.68,255.68c-.85,1.44-1.7,2.87-2.54,4.31-1.13-1.19-2.6-.66-3.9-.66q-71.06,0-142.12,0c-4.11,0-4.11,0-4.11-4.1,0-13.82,0-27.64-.05-41.46,0-2.43.57-3.27,3.16-3.26q73.11.1,146.23,0c2.68,0,3.34.83,3.33,3.4C253.58,227.82,253.66,241.75,253.68,255.68Z"/><path class="cls-2" d="M245.56,270.16c-1.64,4.4-3.35,8.77-4.89,13.2a54.14,54.14,0,0,0-1.54,6.05c-.82,3.74.7,6.49,3.76,8.55l-2.64,20.89H105.12c-4.11,0-4.11,0-4.11-4.09,0-13.93,0-27.86,0-41.78,0-2.14.54-2.94,2.82-2.94q70.58.11,141.14.08C245.14,270.11,245.35,270.14,245.56,270.16Z"/><path class="cls-1" d="M184.42,180h-38.7a1.9,1.9,0,1,1,0-3.8h38.7a1.9,1.9,0,1,1,0,3.8Z"/><path class="cls-1" d="M184.47,240.82H145.78a1.91,1.91,0,1,1,0-3.81h38.69a1.91,1.91,0,0,1,0,3.81Z"/><path class="cls-1" d="M183.15,299h-38.7a1.9,1.9,0,0,1,0-3.8h38.7a1.9,1.9,0,1,1,0,3.8Z"/><path class="cls-1" d="M241.36,168H145.85a1.9,1.9,0,0,1,0-3.8h95.51a1.9,1.9,0,0,1,0,3.8Z"/><path class="cls-1" d="M241.36,228.86H145.85a1.91,1.91,0,0,1,0-3.81h95.51a1.91,1.91,0,0,1,0,3.81Z"/><path class="cls-1" d="M240,287.07H144.47a1.91,1.91,0,0,1,0-3.81H240a1.91,1.91,0,0,1,0,3.81Z"/><circle class="cls-3" cx="122.95" cy="174.87" r="13.87"/><circle class="cls-3" cx="123.98" cy="232.68" r="13.87"/><circle class="cls-3" cx="123.37" cy="292.89" r="13.87"/><path class="cls-4" d="M321.67,219.22c5.06,1.55,9.14,4.66,13,8.17.33.31.62.71,1,1a1.42,1.42,0,0,0,1.35.33c7.21-1.82,13.41,1,18.91,4.95a116.1,116.1,0,0,1,35.7,40.66c2.43,4.65,1.82,7.18-2.06,10.92-.29-.3-.72-.56-.84-.91-1-3-2.66-3-5.22-1.66-5,2.71-10.19,5-15.17,7.71s-10.17,5.48-14.52,9.38c-1.91,1.72-2.73,3.47-1.86,6.06,1.3,3.86,3.72,7.05,5.81,10.43,4.36,7.06,9.69,13.43,14.48,20.18l-.27.27a467.46,467.46,0,0,1-58.55-30.22c-2.9-1.79-6.41-3.05-8.37-6-4-6-9.68-9.11-16.65-10.18-1-6.65-2-13.3-2.81-20-.25-2-1.12-2.32-2.87-2-8,1.28-16,2.54-24,3.66-1.65.23-1.85.82-1.54,2.23.73,3.23.95,6.54,1.5,9.81,1.92,11.51,3.56,23.06,5.19,34.62.26,1.86,1,2.25,2.65,2,7.58-1.2,15.18-2.34,22.76-3.5,1.89,1,4.2-.25,6.06,1.24,3.53,2.83,7.17,5.51,10.73,8.29a564.38,564.38,0,0,0,50.51,35.09c5.52,3.43,11.22,6.56,16.84,9.82,1.26,13.74.06,27.4-1.37,41-.29,2.8-.81,5.61-2.58,8-2.19.74-4.37,1.52-6.57,2.22-14.3,4.51-29.13,5.59-43.94,6.15-15.79.61-31.63.71-47.36-1.2-6.47-.78-13-1.6-18-6.52A11.92,11.92,0,0,1,253,420c-3.92-11.71-4.55-24-4.92-36.08-.61-19.79-.77-39.62,1.13-59.39.49-5.11,1-10.23,1.79-15.31.91-6.12,1-6.1-4.58-9.24-1.19-.67-2.36-1.38-3.54-2.06-3.06-2.06-4.58-4.81-3.76-8.55a54.14,54.14,0,0,1,1.54-6.05c1.54-4.43,3.25-8.8,4.89-13.2L251.14,260c.84-1.44,1.69-2.87,2.54-4.31,3.24-4.13,6.22-8.49,10.16-12a16.71,16.71,0,0,1,2.76-2.58c7.48-4.13,12.77-10.82,19.2-16.17a34.14,34.14,0,0,1,11.95-6.26,36.66,36.66,0,0,1,.11,5c-.37,3.31,1.34,4.7,4.24,5.51a29.42,29.42,0,0,0,16.35-.45,3.75,3.75,0,0,0,3-4.17A50.06,50.06,0,0,1,321.67,219.22Z"/><path class="cls-5" d="M327.73,245.4s0-13.32,8.81-16.54c6.66-2.44,17,1.83,22.8,7.17s28.29,23.44,33.39,40.2c0,0,.71,3.06.31,4.17-.72,2-3.2,4.43-3.53,4.85s-2.08-4.26-3.95-3.45c-5.31,2.29-29.93,14.22-33.18,19.16,0,0-1.24,2.48-.93,3.1S328.77,290.21,327.73,245.4Z"/><path class="cls-6" d="M253.51,421.2c5,4.92,11.56,5.74,18,6.52,15.73,1.91,31.57,1.81,47.36,1.2,14.81-.56,29.64-1.64,43.94-6.15,2.2-.7,4.38-1.48,6.57-2.22,0,1.27.09,2.53.09,3.8q0,75.34,0,150.69c0,4.68.51,4.15-4.29,4.16-31.23,0-62.46,0-93.7.12-2.51,0-3.49-.62-3.71-3.18C267,566.39,266,556.65,265,546.9c-1.21-12.25-2.46-24.5-3.64-36.76-.94-9.75-1.78-19.5-2.7-29.25q-1.74-18.56-3.52-37.1C255,436.23,253.42,428.78,253.51,421.2Z"/><path class="cls-7" d="M281,155.52c-8.57-10.94-8.31-27.75,9.46-34.74,12.75-5,25.43-3.74,37.57,2.6,3.26,1.71,6.6,3.31,9.71,5.27,10,6.33,20.62,6.63,31.55,2.95,7.18-2.42,14.27-5.13,21.47-7.49,15.79-5.16,30.66-2.54,44.36,6.34,10.82,7,16.22,17.39,16.84,30.24.46,9.39-.71,18.5-4.6,27.17-6.92,15.45-21.37,23.79-38.35,23-13.6-.66-25.92-5.2-38-10.72a139.17,139.17,0,0,0-18.78-7.44,31.61,31.61,0,0,0-14.38-.93c-5.19.91-10.34,2-15.64,2v-13.3c.64.18,1.13.37,1.64.46,2.81.55,5.27,0,6.86-2.58a6.09,6.09,0,0,0-7.24-8.93,7.3,7.3,0,0,1-3.38.19c-7-.65-12.75-4.14-18.26-8.07a71.26,71.26,0,0,1-16.9-17.09C282.92,148,282.33,151.91,281,155.52Z"/><path class="cls-8" d="M372.19,336.44c-4.79-6.75-10.12-13.12-14.48-20.18-2.09-3.38-4.51-6.57-5.81-10.43-.87-2.59,0-4.34,1.86-6.06,4.35-3.9,9.45-6.63,14.52-9.38s10.19-5,15.17-7.71c2.56-1.39,4.24-1.39,5.22,1.66.12.35.55.61.84.91,1.67,3.74,3.36,7.47,5,11.22,7.08,16.25,11.21,33.32,13.44,50.83,1.06,8.36.23,16.68-4.47,24.09-4.21,6.62-7.88,7.86-15.46,5.93-5.16-1.32-9.69-4.08-14.66-5.78-5.62-3.26-11.32-6.39-16.84-9.82A564.38,564.38,0,0,1,306,326.63c-3.56-2.78-7.2-5.46-10.73-8.29-1.86-1.49-4.17-.21-6.06-1.24-.62-1-1.8-1-2.71-1.44-5.23-2.74-9.38-6.45-11.06-12.33s1.2-10.85,7-12.56a14.22,14.22,0,0,1,5.94-.46c7,1.07,12.63,4.15,16.65,10.18,2,2.95,5.47,4.21,8.37,6a467.46,467.46,0,0,0,58.55,30.22l.48.2Z"/><path class="cls-9" d="M281,155.52c1.35-3.61,1.94-7.48,3.89-11.13a71.26,71.26,0,0,0,16.9,17.09c5.51,3.93,11.26,7.42,18.26,8.07a7.3,7.3,0,0,0,3.38-.19,6.09,6.09,0,0,1,7.24,8.93c-1.59,2.57-4,3.13-6.86,2.58-.51-.09-1-.28-1.64-.46v13.3c-1.21,8.49-.52,17-.48,25.52a49.78,49.78,0,0,0-.19,5.32,3.75,3.75,0,0,1-3,4.17,29.42,29.42,0,0,1-16.35.45c-2.9-.81-4.61-2.2-4.24-5.51a36.66,36.66,0,0,0-.11-5c0-.73,0-1.47.1-2.2.47-4.07-.53-6.9-4.24-9.71-7.38-5.59-10.14-14.21-12.1-23C279.4,174.39,280,165,281,155.52Z"/><path class="cls-10" d="M262.94,426.59l60.77,153,43.75-.31a6,6,0,0,0,6.08-5.9l-2.32-155.23S336.73,435,262.94,426.59Z"/><path class="cls-11" d="M322.15,193.71s-1.15,6.47-5,10.16-12.2,8.55-21.12,5.1l-3.48-2.8c-.94-.77-8.4-7.54-11-21.47-2.58-13.63-1.72-17.57-.57-29.18,0,0,2.91-10.13,3.86-10.88s9.27,13.15,22.52,20.55c0,0,8,4.46,13.77,4.33a3.28,3.28,0,0,0,2.28-.16,5.79,5.79,0,0,1,7.67,3.26c2.17,4.59-2.3,7.73-2.3,7.73s-4.85,2.33-6.5.13C321.9,180,322.15,193.71,322.15,193.71Z"/><path class="cls-7" d="M288.35,290.31a14.22,14.22,0,0,0-5.94.46c-5.76,1.71-8.61,6.76-7,12.56s5.83,9.59,11.06,12.33c.91.47,2.09.45,2.71,1.44-7.58,1.16-15.18,2.3-22.76,3.5-1.68.27-2.39-.12-2.65-2-1.63-11.56-3.27-23.11-5.19-34.62-.55-3.27-.77-6.58-1.5-9.81-.31-1.41-.11-2,1.54-2.23,8-1.12,16-2.38,24-3.66,1.75-.28,2.62,0,2.87,2C286.37,277,287.4,283.66,288.35,290.31Z"/><path class="cls-12" d="M251.6,305s1.45-33.52,23.84-70.36a64.09,64.09,0,0,0-17.82,15.59s-3.37,3.62-3.94,5.42-8.44,13.32-8.12,14.48-6.29,15-6.29,17.41-2.11,6,.9,8.13S251.6,305,251.6,305Z"/><path class="cls-13" d="M372.19,336.44l.21.47-.48-.2Z"/><path class="cls-8" d="M240.25,318.85,242.89,298c1.18.68,2.35,1.39,3.54,2.06,5.59,3.14,5.49,3.12,4.58,9.24-.76,5.08-1.3,10.2-1.79,15.31-1.9,19.77-1.74,39.6-1.13,59.39.37,12.12,1,24.37,4.92,36.08a11.92,11.92,0,0,0,.5,1.16c-.09,7.58,1.49,15,1.62,22.59-1.73.8-1.89-.48-2.26-1.63a274.29,274.29,0,0,1-10.56-43.85c-3.15-21-3.8-42.18-3.1-63.39C239.38,329.56,239.89,324.21,240.25,318.85Z"/><path class="cls-14" d="M574.22,156.58h-53.9a1.9,1.9,0,1,1,0-3.8h53.9a1.9,1.9,0,0,1,0,3.8Z"/><path class="cls-2" d="M557.21,111.37h11.38c3.46,5.5,7.86,8.64,14.87,9,5.79.29,8.42,5.07,8.56,12.87.18,10.46,0,20.92,0,31.39,0,16.17,0,32.34,0,48.52,0,10.88-2.18,13.12-12.75,13.15-26.3,0-52.6-.05-78.9.07-5.86,0-10.2-1.54-11.47-7.91V129.94c1.51-6.92,5.71-10.75,12.84-10.12,6.49.58,6.63-5.64,9.92-8.45h11.38c3.25,1.91,2.52,7.61,7.23,8,6.78.52,13.62.84,20.36-.19C554.75,118.53,554.09,113.21,557.21,111.37Z"/><path class="cls-1" d="M540,214.18c-11.36,0-22.73-.15-34.08.08-4,.08-5.8-.53-5.73-5.28.3-19.48.25-39,0-58.44,0-4.26,1.49-5,5.29-5q34.79.23,69.58,0c4.23,0,5,1.47,5,5.29-.17,19.48-.21,39,0,58.44,0,4.27-1.49,5.05-5.29,5C563.18,214,551.58,214.18,540,214.18Z"/><path class="cls-3" d="M551.5,202.76c-17,0-17,0-17-17.15s0-17.12,17.09-17.12,17.05,0,17.05,17.15S568.59,202.76,551.5,202.76Z"/><polygon class="cls-2" points="548.06 193.93 541.83 187.81 544.49 185.09 548.07 188.6 559.3 177.6 561.96 180.32 548.06 193.93"/></g></g></svg>